<svg viewBox="0 0 322 413" fill="none" xmlns="http://www.w3.org/2000/svg" role="img" aria-hidden="true" width="100%" class="css-6hsytm"><rect width="100%" height="100%" fill="#fff"></rect><rect x="62" y="334" width="240" height="1" fill="#D9D9E0"></rect><rect x="318" y="334" width="150" height="1" fill="#D9D9E0"></rect><rect x="63" y="153" width="217" height="28" rx="1" stroke="#A4A2B4" stroke-width="2"></rect><rect x="305" y="153" width="217" height="28" rx="1" stroke="#A4A2B4" stroke-width="2"></rect><rect x="63" y="225" width="217" height="28" rx="1" stroke="#A4A2B4" stroke-width="2"></rect><rect x="319" y="299" width="148" height="28" rx="1" stroke="#A4A2B4" stroke-width="2"></rect><rect x="62" y="-2" width="500" height="8" rx="1" fill="#D9D9E0"></rect><rect x="62" y="58" width="500" height="8" rx="1" fill="#D9D9E0"></rect><rect x="62" y="14" width="480" height="8" rx="1" fill="#D9D9E0"></rect><rect x="62" y="74" width="500" height="8" rx="1" fill="#D9D9E0"></rect><rect x="62" y="90" width="373" height="8" rx="1" fill="#D9D9E0"></rect><rect x="62" y="136" width="103" height="8" rx="1" fill="#D9D9E0"></rect><rect x="304" y="136" width="83" height="8" rx="1" fill="#D9D9E0"></rect><rect x="62" y="208" width="123" height="8" rx="1" fill="#D9D9E0"></rect><g style="transform: translate(72px, 324px);"><g class="css-20t88u"><text class="fs-mask" font-family="&quot;2_Docusign&quot;" font-size="34" fill="#000">Signature</text></g></g><g style="transform: translate(63px, 352px);"><text font-family="inherit" font-weight="bold" font-size="12" fill="#000">Signature</text></g></svg>